<svg xmlns="http://www.w3.org/2000/svg" width="256" height="256" viewBox="0 0 256 256"><g transform="translate(0 -796.36216)"><path fill="#fff" d="m1.8439354 798.20612h252.31212v252.31213h-252.31212z"/><rect width="23" height="23" x="4" y="1025.362" fill="#55b4d6" ry="3.712"/><rect width="23" height="23" x="29" y="1025.362" fill="#55b4d6" ry="3.712"/><rect width="23" height="23" x="54" y="1025.362" fill="#55b4d6" ry="3.712"/><rect width="23" height="23" x="79" y="1025.362" fill="#f2f2f2" ry="3.712"/><rect width="23" height="23" x="129" y="1025.362" fill="#cf6050" ry="3.712"/><rect width="23" height="23" x="154" y="1025.362" fill="#cf6050" ry="3.712"/><rect width="23" height="23" x="179" y="1025.362" fill="#cf6050" ry="3.712"/><rect width="23" height="23" x="204" y="1025.362" fill="#cf6050" ry="3.712"/><rect width="23" height="23" x="104" y="1025.362" fill="#cf6050" ry="3.712"/><rect width="23" height="23" x="229" y="1025.362" fill="#cf6050" ry="3.712"/><rect width="23" height="23" x="4" y="1000.362" fill="#55b4d6" ry="3.712"/><rect width="23" height="23" x="29" y="1000.362" fill="#53c17d" ry="3.712"/><rect width="23" height="23" x="54" y="1000.362" fill="#53c17d" ry="3.712"/><rect width="23" height="23" x="79" y="1000.362" fill="#f2f2f2" ry="3.712"/><rect width="23" height="23" x="129" y="1000.362" fill="#da657b" ry="3.712"/><rect width="23" height="23" x="154" y="1000.362" fill="#e08d44" ry="3.712"/><rect width="23" height="23" x="179" y="1000.362" fill="#e08d44" ry="3.712"/><rect width="23" height="23" x="204" y="1000.362" fill="#e08d44" ry="3.712"/><rect width="23" height="23" x="104" y="1000.362" fill="#da657b" ry="3.712"/><rect width="23" height="23" x="229" y="1000.362" fill="#cf6050" ry="3.712"/><rect width="23" height="23" x="4" y="975.362" fill="#55b4d6" ry="3.712"/><rect width="23" height="23" x="29" y="975.362" fill="#53c17d" ry="3.712"/><rect width="23" height="23" x="54" y="975.362" fill="#f2f2f2" ry="3.712"/><rect width="23" height="23" x="79" y="975.362" fill="#f2f2f2" ry="3.712"/><rect width="23" height="23" x="129" y="975.362" fill="#da657b" ry="3.712"/><rect width="23" height="23" x="154" y="975.362" fill="#48c9a5" ry="3.712"/><rect width="23" height="23" x="179" y="975.362" fill="#48c9a5" ry="3.712"/><rect width="23" height="23" x="204" y="975.362" fill="#48c9a5" ry="3.712"/><rect width="23" height="23" x="104" y="975.362" fill="#da657b" ry="3.712"/><rect width="23" height="23" x="229" y="975.362" fill="#cf6050" ry="3.712"/><rect width="23" height="23" x="4" y="950.362" fill="#f2f2f2" ry="3.712"/><rect width="23" height="23" x="29" y="950.362" fill="#f2f2f2" ry="3.712"/><rect width="23" height="23" x="54" y="950.362" fill="#f2f2f2" ry="3.712"/><rect width="23" height="23" x="79" y="950.362" fill="#f2f2f2" ry="3.712"/><rect width="23" height="23" x="129" y="950.362" fill="#da657b" ry="3.712"/><rect width="23" height="23" x="154" y="950.362" fill="#48c9a5" ry="3.712"/><rect width="23" height="23" x="179" y="950.362" fill="#48c9a5" ry="3.712"/><rect width="23" height="23" x="204" y="950.362" fill="#48c9a5" ry="3.712"/><rect width="23" height="23" x="104" y="950.362" fill="#da657b" ry="3.712"/><rect width="23" height="23" x="229" y="950.362" fill="#cf6050" ry="3.712"/><rect width="23" height="23" x="4" y="925.362" fill="#f2f2f2" ry="3.712"/><rect width="23" height="23" x="29" y="925.362" fill="#f2f2f2" ry="3.712"/><rect width="23" height="23" x="54" y="925.362" fill="#f2f2f2" ry="3.712"/><rect width="23" height="23" x="79" y="925.362" fill="#f2f2f2" ry="3.712"/><rect width="23" height="23" x="129" y="925.362" fill="#da657b" ry="3.712"/><rect width="23" height="23" x="154" y="925.362" fill="#48c9a5" ry="3.712"/><rect width="23" height="23" x="179" y="925.362" fill="#48c9a5" ry="3.712"/><rect width="23" height="23" x="204" y="925.362" fill="#48c9a5" ry="3.712"/><rect width="23" height="23" x="104" y="925.362" fill="#da657b" ry="3.712"/><rect width="23" height="23" x="229" y="925.362" fill="#cf6050" ry="3.712"/><rect width="23" height="23" x="4" y="900.362" fill="#f2f2f2" ry="3.712"/><rect width="23" height="23" x="29" y="900.362" fill="#f2f2f2" ry="3.712"/><rect width="23" height="23" x="54" y="900.362" fill="#f2f2f2" ry="3.712"/><rect width="23" height="23" x="79" y="900.362" fill="#f2f2f2" ry="3.712"/><rect width="23" height="23" x="129" y="900.362" fill="#f2f2f2" ry="3.712"/><rect width="23" height="23" x="154" y="900.362" fill="#f2f2f2" ry="3.712"/><rect width="23" height="23" x="179" y="900.362" fill="#f2f2f2" ry="3.712"/><rect width="23" height="23" x="204" y="900.362" fill="#f2f2f2" ry="3.712"/><rect width="23" height="23" x="104" y="900.362" fill="#f2f2f2" ry="3.712"/><rect width="23" height="23" x="229" y="900.362" fill="#f2f2f2" ry="3.712"/><rect width="23" height="23" x="4" y="875.362" fill="#da657b" ry="3.712"/><rect width="23" height="23" x="29" y="875.362" fill="#55b4d6" ry="3.712"/><rect width="23" height="23" x="54" y="875.362" fill="#f2f2f2" ry="3.712"/><rect width="23" height="23" x="79" y="875.362" fill="#f2f2f2" ry="3.712"/><rect width="23" height="23" x="129" y="875.362" fill="#f2f2f2" ry="3.712"/><rect width="23" height="23" x="154" y="875.362" fill="#53c17d" ry="3.712"/><rect width="23" height="23" x="179" y="875.362" fill="#53c17d" ry="3.712"/><rect width="23" height="23" x="204" y="875.362" fill="#55b4d6" ry="3.712"/><rect width="23" height="23" x="104" y="875.362" fill="#f2f2f2" ry="3.712"/><rect width="23" height="23" x="229" y="875.362" fill="#f1bc3a" ry="3.712"/><rect width="23" height="23" x="4" y="850.362" fill="#da657b" ry="3.712"/><rect width="23" height="23" x="29" y="850.362" fill="#55b4d6" ry="3.712"/><rect width="23" height="23" x="54" y="850.362" fill="#f2f2f2" ry="3.712"/><rect width="23" height="23" x="79" y="850.362" fill="#f2f2f2" ry="3.712"/><rect width="23" height="23" x="129" y="850.362" fill="#f2f2f2" ry="3.712"/><rect width="23" height="23" x="154" y="850.362" fill="#f2f2f2" ry="3.712"/><rect width="23" height="23" x="179" y="850.362" fill="#53c17d" ry="3.712"/><rect width="23" height="23" x="204" y="850.362" fill="#55b4d6" ry="3.712"/><rect width="23" height="23" x="104" y="850.362" fill="#f2f2f2" ry="3.712"/><rect width="23" height="23" x="229" y="850.362" fill="#f1bc3a" ry="3.712"/><rect width="23" height="23" x="4" y="825.362" fill="#da657b" ry="3.712"/><rect width="23" height="23" x="29" y="825.362" fill="#53c17d" ry="3.712"/><rect width="23" height="23" x="54" y="825.362" fill="#f2f2f2" ry="3.712"/><rect width="23" height="23" x="79" y="825.362" fill="#f2f2f2" ry="3.712"/><rect width="23" height="23" x="129" y="825.362" fill="#f2f2f2" ry="3.712"/><rect width="23" height="23" x="154" y="825.362" fill="#f2f2f2" ry="3.712"/><rect width="23" height="23" x="179" y="825.362" fill="#f2f2f2" ry="3.712"/><rect width="23" height="23" x="204" y="825.362" fill="#f2f2f2" ry="3.712"/><rect width="23" height="23" x="104" y="825.362" fill="#f2f2f2" ry="3.712"/><rect width="23" height="23" x="229" y="825.362" fill="#f2f2f2" ry="3.712"/><rect width="23" height="23" x="4" y="800.362" fill="#da657b" ry="3.712"/><rect width="23" height="23" x="29" y="800.362" fill="#53c17d" ry="3.712"/><rect width="23" height="23" x="54" y="800.362" fill="#53c17d" ry="3.712"/><rect width="23" height="23" x="79" y="800.362" fill="#7381b5" ry="3.712"/><rect width="23" height="23" x="129" y="800.362" fill="#f2f2f2" ry="3.712"/><rect width="23" height="23" x="154" y="800.362" fill="#f2f2f2" ry="3.712"/><rect width="23" height="23" x="179" y="800.362" fill="#e08d44" ry="3.712"/><rect width="23" height="23" x="204" y="800.362" fill="#e08d44" ry="3.712"/><rect width="23" height="23" x="104" y="800.362" fill="#f2f2f2" ry="3.712"/><rect width="23" height="23" x="229" y="800.362" fill="#e08d44" ry="3.712"/><g transform="matrix(.97656252 0 0 .97656252 151.21587 -124.47349)"><rect width="23.552" height="23.552" x="-85.938" y="1008.297" fill="#f1bc3a" ry="3.801"/><rect width="23.552" height="23.552" x="-85.938" y="982.697" fill="#f1bc3a" ry="3.801"/><path fill="#4d4d4d" d="m-63.396484 1019.4668c-.403493-.022-.715155.024-.923828.1445-3.338799 1.9277-3.338799 36.6251 0 38.5528 1.423092.8216 7.704486-1.8689 14.4375-5.5137l10.880859 18.8457c1.05299 1.8238 3.369526 2.4436 5.193359 1.3906l2.013672-1.164c1.823833-1.053 2.445569-3.3676 1.392578-5.1915l-10.914062-18.9042c5.784742-3.6696 10.382812-7.2347 10.382812-8.7403 0-3.6143-26.410502-19.0881-32.46289-19.4199z"/></g></g></svg>