<svg xmlns="http://www.w3.org/2000/svg" xmlns:xlink="http://www.w3.org/1999/xlink" width="256" height="256" viewBox="0 0 256 256"><linearGradient id="a" x1="-440.173" x2="-440.173" y1="1002.751" y2="1062.272" gradientUnits="userSpaceOnUse"><stop offset="0" stop-color="#005497" stop-opacity=".273"/><stop offset="1" stop-color="#005497" stop-opacity=".068"/></linearGradient><filter id="b" width="1.08" height="1.191" x="-.04" y="-.095" color-interpolation-filters="sRGB"><feGaussianBlur stdDeviation="3.667"/></filter><g><path fill="#fff" d="m-669.75 906.68933h360v360h-360z" transform="matrix(.71111111 0 0 .71111111 476.26667 -644.75682)"/><g transform="matrix(.71111111 0 0 .71111111 476.26667 -644.75682) matrix(1.3547235 0 0 1.3547235 160.26025 20.43346)"><path fill="url(#a)" d="m-442.65137 1055.1932c-5.37558-.0004-10.75247-.4342-14.87109-1.3009l-84.63672-17.8104c-1.65176-.3475-2.95609-.7386-3.94531-1.154-3.71453-1.1985-6.62987-3.2201-7.13477-4.9803-.41372-.4331-.64391-.9429-.63281-1.5313l.69922-37.06c.054-2.86135 5.52976-6.35712 12.27734-7.8371l89.12695-19.54942c1.48558-.32573 2.89873-.51836 4.20899-.60182 3.99244-.574 8.30073-.65058 11.66992.11216l88.56445 20.04642c6.90343 1.56259 12.50464 5.19835 12.5586 8.15116l.69922 38.2432c.0315 1.7289-1.90581 3.6797-5.14063 5.0001-.19992.086-.41416.1725-.64258.2558-.016 0-.0327.022-.0488.022-.90767.3313-2.01326.6462-3.36329.9301l-84.51953 17.7707c-4.11948.8661-9.49355 1.2992-14.86914 1.2988z" filter="url(#b)" transform="matrix(.84718319 0 0 1.0213689 -103.68658 -169.01715)"/><path fill="#00aad4" d="m-397.75084 715.67331l-163.78868 1.15534c-6.94231.049-14.10792 13.10451-10.71655 19.16231l80.79533 144.31978c3.39136 6.05781 12.65442 10.6298 18.54535 6.9562l75.57536-47.12863c5.89092-3.67357 10.6705-12.21995 10.71655-19.16229l.59631-89.90907c.046-6.94233-4.78135-15.44261-11.72367-15.39364z"/><rect width="113.151" height="111.416" x="-678.873" y="1073.597" fill="#0cf" ry="12.144" transform="matrix(.85586624 .51719723 .00684405 .99997658 0 0)"/><rect width="112.682" height="112.816" x="388.7" y="942.098" fill="#5df" ry="14.666" transform="matrix(.86530322 .50124878 -.86512318 .50155946 0 0)"/></g></g></svg>