<svg xmlns="http://www.w3.org/2000/svg" xmlns:svg="http://www.w3.org/2000/svg" xmlns:xlink="http://www.w3.org/1999/xlink" id="svg8" width="195" height="195" version="1.1" viewBox="0 0 51.594 51.594"><defs id="defs2"><linearGradient id="linearGradient1398"><stop style="stop-color:#63e500;stop-opacity:1" id="stop1394" offset="0"/><stop id="stop1406" offset=".25" style="stop-color:#a6e928;stop-opacity:.74901962"/><stop id="stop1402" offset=".5" style="stop-color:#72ff8f;stop-opacity:.49803922"/><stop style="stop-color:#c4eddd;stop-opacity:.63921571" id="stop1404" offset=".75"/><stop style="stop-color:#bfffff;stop-opacity:.78494626" id="stop1396" offset="1"/></linearGradient><linearGradient id="linearGradient1400" x1="0" x2="51.594" y1="245.406" y2="297" gradientUnits="userSpaceOnUse" xlink:href="#linearGradient1398"/></defs><metadata id="metadata5"/><g id="layer1" transform="translate(0,-245.40623)"><rect style="opacity:1;fill:url(#linearGradient1400);fill-opacity:1;stroke:none;stroke-width:.27449697;stroke-linecap:butt;stroke-linejoin:round;stroke-miterlimit:4;stroke-dasharray:none;stroke-opacity:1" id="rect1392" width="51.594" height="51.594" x="0" y="245.406"/><rect style="opacity:1;fill:#4d4d4d;fill-opacity:1;stroke:none;stroke-width:.45617813;stroke-linecap:butt;stroke-linejoin:round;stroke-miterlimit:4;stroke-dasharray:none;stroke-opacity:1" id="rect1408" width="13.229" height="13.229" x="19.182" y="264.589"/><g id="g847" transform="translate(-1.7185197,1.9843955)"><path id="path821" d="m 32.098112,271.86455 -4.582718,2.64584 -4.582718,-2.64584 0,-5.29166 4.582718,-2.64584 4.582718,2.64584 z" style="opacity:1;fill:#80ffff;fill-opacity:1;stroke:none;stroke-width:.20531785;stroke-linecap:butt;stroke-linejoin:round;stroke-miterlimit:4;stroke-dasharray:none;stroke-opacity:1"/><path style="opacity:1;fill:#fff;fill-opacity:1;stroke:none;stroke-width:.04927629;stroke-linecap:butt;stroke-linejoin:round;stroke-miterlimit:4;stroke-dasharray:none;stroke-opacity:1" id="path823" d="m 27.133582,268.05456 -1.099852,0.635 -1.099853,-0.635 0,-1.27 1.099853,-0.635 1.099852,0.635 z"/></g><text style="font-style:normal;font-weight:400;font-size:5.30142689px;line-height:1.25;font-family:sans-serif;letter-spacing:0;word-spacing:0;fill:#000;fill-opacity:1;stroke:none;stroke-width:.36146089" id="text827" x="1.12" y="252.343" xml:space="preserve"><tspan style="stroke-width:.36146089" id="tspan833" x="1.12" y="252.343">Early to late-game</tspan></text><text style="font-style:normal;font-weight:400;font-size:5.25529337px;line-height:1.25;font-family:sans-serif;text-align:end;letter-spacing:0;word-spacing:0;text-anchor:end;fill:#000;fill-opacity:1;stroke:none;stroke-width:.35831544" id="text837" x="50.198" y="281.56" xml:space="preserve"><tspan id="tspan835" x="50.198" y="281.56" style="text-align:end;text-anchor:end;stroke-width:.35831544">• Gear</tspan><tspan style="text-align:end;text-anchor:end;stroke-width:.35831544" id="tspan839" x="50.198" y="288.129">• Materials</tspan><tspan style="text-align:end;text-anchor:end;stroke-width:.35831544" id="tspan841" x="50.198" y="294.698">• Gameplay tips</tspan></text><path style="opacity:1;fill:#999;fill-opacity:1;stroke:none;stroke-width:.26458332;stroke-linecap:butt;stroke-linejoin:round;stroke-miterlimit:4;stroke-dasharray:none;stroke-opacity:1" id="path849" d="m 14.13872,275.20712 -4.109567,0 -2.054784,-3.55899 2.054784,-3.55899 4.109568,0 2.054783,3.55899 z"/><path id="path851" d="m 39.863412,262.76572 -4.109568,0 -2.054784,-3.55899 2.054784,-3.55899 4.109568,0 2.054784,3.55899 z" style="opacity:1;fill:#999;fill-opacity:1;stroke:none;stroke-width:.26458332;stroke-linecap:butt;stroke-linejoin:round;stroke-miterlimit:4;stroke-dasharray:none;stroke-opacity:1"/><g id="g864"><ellipse id="path853" cx="24.789" cy="260.19" rx="3.368" ry="2.105" style="opacity:1;fill:#a05a2c;fill-opacity:1;stroke:none;stroke-width:.26458332;stroke-linecap:butt;stroke-linejoin:round;stroke-miterlimit:4;stroke-dasharray:none;stroke-opacity:1"/><path id="rect855" d="M 88.609375 37.419922 L 85.464844 38.599609 L 91.171875 53.828125 L 94.318359 52.648438 L 90.164062 41.568359 L 99.595703 45.033203 L 94.708984 58.070312 L 97.853516 59.25 L 103.5625 44.019531 L 103.51758 44.001953 L 103.875 43.027344 L 88.609375 37.419922 z" transform="matrix(0.26458333,0,0,0.26458333,0,245.40623)" style="opacity:1;fill:#c87137;fill-opacity:1;stroke:none;stroke-width:.99999994;stroke-linecap:butt;stroke-linejoin:round;stroke-miterlimit:4;stroke-dasharray:none;stroke-opacity:1"/></g><g id="g870" transform="translate(-12.369271,0.13229167)"><ellipse style="opacity:1;fill:#a05a2c;fill-opacity:1;stroke:none;stroke-width:.26458332;stroke-linecap:butt;stroke-linejoin:round;stroke-miterlimit:4;stroke-dasharray:none;stroke-opacity:1" id="ellipse866" cx="24.789" cy="260.19" rx="3.368" ry="2.105"/><path style="opacity:1;fill:#c87137;fill-opacity:1;stroke:none;stroke-width:.99999994;stroke-linecap:butt;stroke-linejoin:round;stroke-miterlimit:4;stroke-dasharray:none;stroke-opacity:1" id="path868" d="m 88.609375,37.419922 -3.144531,1.179687 5.707031,15.228516 3.146484,-1.179687 -4.154297,-11.080079 9.431641,3.464844 -4.886719,13.037109 3.144532,1.179688 5.708984,-15.230469 -0.0449,-0.01758 0.35742,-0.974609 z" transform="matrix(0.26458333,0,0,0.26458333,0,245.40623)"/></g><g id="g876" transform="translate(14.022917,11.840104)"><ellipse id="ellipse872" cx="24.789" cy="260.19" rx="3.368" ry="2.105" style="opacity:1;fill:#a05a2c;fill-opacity:1;stroke:none;stroke-width:.26458332;stroke-linecap:butt;stroke-linejoin:round;stroke-miterlimit:4;stroke-dasharray:none;stroke-opacity:1"/><path id="path874" d="m 88.609375,37.419922 -3.144531,1.179687 5.707031,15.228516 3.146484,-1.179687 -4.154297,-11.080079 9.431641,3.464844 -4.886719,13.037109 3.144532,1.179688 5.708984,-15.230469 -0.0449,-0.01758 0.35742,-0.974609 z" transform="matrix(0.26458333,0,0,0.26458333,0,245.40623)" style="opacity:1;fill:#c87137;fill-opacity:1;stroke:none;stroke-width:.99999994;stroke-linecap:butt;stroke-linejoin:round;stroke-miterlimit:4;stroke-dasharray:none;stroke-opacity:1"/></g></g></svg>