<svg xmlns="http://www.w3.org/2000/svg" xmlns:svg="http://www.w3.org/2000/svg" id="svg2" width="256" height="256" version="1.1" viewBox="0 0 256 256"><defs id="defs4"><filter style="color-interpolation-filters:sRGB" id="filter4340" width="1.025" height="1.142" x="-.013" y="-.071"><feGaussianBlur id="feGaussianBlur4342" stdDeviation=".872"/></filter></defs><metadata id="metadata7"/><g id="layer1" transform="translate(0,-796.36216)"><rect style="opacity:1;fill:#fff;fill-opacity:1;stroke:#000;stroke-width:3.68787074;stroke-linecap:round;stroke-linejoin:miter;stroke-miterlimit:4;stroke-dasharray:none;stroke-dashoffset:0;stroke-opacity:0" id="rect4238" width="252.312" height="252.312" x="1.844" y="798.206" ry="0"/><rect style="opacity:1;fill:#cf6050;fill-opacity:1;stroke:#000;stroke-width:2.00000024;stroke-linecap:round;stroke-linejoin:miter;stroke-miterlimit:4;stroke-dasharray:none;stroke-dashoffset:0;stroke-opacity:0" id="rect4160" width="23" height="23" x="4" y="1025.362" ry="3.712"/><rect id="rect4199" width="23" height="23" x="29" y="1025.362" ry="3.712" style="opacity:1;fill:#cf6050;fill-opacity:1;stroke:#000;stroke-width:2.00000024;stroke-linecap:round;stroke-linejoin:miter;stroke-miterlimit:4;stroke-dasharray:none;stroke-dashoffset:0;stroke-opacity:0"/><rect style="opacity:1;fill:#500;fill-opacity:1;stroke:#000;stroke-width:2.00000024;stroke-linecap:round;stroke-linejoin:miter;stroke-miterlimit:4;stroke-dasharray:none;stroke-dashoffset:0;stroke-opacity:0" id="rect4203" width="23" height="23" x="79" y="1025.362" ry="3.712"/><rect id="rect4205" width="23" height="23" x="129" y="1025.362" ry="3.712" style="opacity:1;fill:#06f;fill-opacity:1;stroke:#000;stroke-width:2.00000024;stroke-linecap:round;stroke-linejoin:miter;stroke-miterlimit:4;stroke-dasharray:none;stroke-dashoffset:0;stroke-opacity:0"/><rect style="opacity:1;fill:#06f;fill-opacity:1;stroke:#000;stroke-width:2.00000024;stroke-linecap:round;stroke-linejoin:miter;stroke-miterlimit:4;stroke-dasharray:none;stroke-dashoffset:0;stroke-opacity:0" id="rect4207" width="23" height="23" x="154" y="1025.362" ry="3.712"/><rect style="opacity:1;fill:#1a1a1a;fill-opacity:1;stroke:#000;stroke-width:2.00000024;stroke-linecap:round;stroke-linejoin:miter;stroke-miterlimit:4;stroke-dasharray:none;stroke-dashoffset:0;stroke-opacity:0" id="rect4209" width="23" height="23" x="179" y="1025.362" ry="3.712"/><rect id="rect4211" width="23" height="23" x="204" y="1025.362" ry="3.712" style="opacity:1;fill:#1a1a1a;fill-opacity:1;stroke:#000;stroke-width:2.00000024;stroke-linecap:round;stroke-linejoin:miter;stroke-miterlimit:4;stroke-dasharray:none;stroke-dashoffset:0;stroke-opacity:0"/><rect id="rect4213" width="23" height="23" x="104" y="1025.362" ry="3.712" style="opacity:1;fill:#06f;fill-opacity:1;stroke:#000;stroke-width:2.00000024;stroke-linecap:round;stroke-linejoin:miter;stroke-miterlimit:4;stroke-dasharray:none;stroke-dashoffset:0;stroke-opacity:0"/><rect style="opacity:1;fill:#1a1a1a;fill-opacity:1;stroke:#000;stroke-width:2.00000024;stroke-linecap:round;stroke-linejoin:miter;stroke-miterlimit:4;stroke-dasharray:none;stroke-dashoffset:0;stroke-opacity:0" id="rect4215" width="23" height="23" x="229" y="1025.362" ry="3.712"/><rect id="rect4237" width="23" height="23" x="4" y="1000.362" ry="3.712" style="opacity:1;fill:#f2f2f2;fill-opacity:1;stroke:#000;stroke-width:2.00000024;stroke-linecap:round;stroke-linejoin:miter;stroke-miterlimit:4;stroke-dasharray:none;stroke-dashoffset:0;stroke-opacity:0"/><rect style="opacity:1;fill:#f2f2f2;fill-opacity:1;stroke:#000;stroke-width:2.00000024;stroke-linecap:round;stroke-linejoin:miter;stroke-miterlimit:4;stroke-dasharray:none;stroke-dashoffset:0;stroke-opacity:0" id="rect4239" width="23" height="23" x="29" y="1000.362" ry="3.712"/><rect id="rect4243" width="23" height="23" x="79" y="1000.362" ry="3.712" style="opacity:1;fill:#333;fill-opacity:1;stroke:#000;stroke-width:2.00000024;stroke-linecap:round;stroke-linejoin:miter;stroke-miterlimit:4;stroke-dasharray:none;stroke-dashoffset:0;stroke-opacity:0"/><rect style="opacity:1;fill:#87cdde;fill-opacity:1;stroke:#000;stroke-width:2.00000024;stroke-linecap:round;stroke-linejoin:miter;stroke-miterlimit:4;stroke-dasharray:none;stroke-dashoffset:0;stroke-opacity:0" id="rect4245" width="23" height="23" x="129" y="1000.362" ry="3.712"/><rect id="rect4247" width="23" height="23" x="154" y="1000.362" ry="3.712" style="opacity:1;fill:#3771c8;fill-opacity:1;stroke:#000;stroke-width:2.00000024;stroke-linecap:round;stroke-linejoin:miter;stroke-miterlimit:4;stroke-dasharray:none;stroke-dashoffset:0;stroke-opacity:0"/><rect id="rect4249" width="23" height="23" x="179" y="1000.362" ry="3.712" style="opacity:1;fill:#1a1a1a;fill-opacity:1;stroke:#000;stroke-width:2.00000024;stroke-linecap:round;stroke-linejoin:miter;stroke-miterlimit:4;stroke-dasharray:none;stroke-dashoffset:0;stroke-opacity:0"/><rect style="opacity:1;fill:#ccc;fill-opacity:1;stroke:#000;stroke-width:2.00000024;stroke-linecap:round;stroke-linejoin:miter;stroke-miterlimit:4;stroke-dasharray:none;stroke-dashoffset:0;stroke-opacity:0" id="rect4251" width="23" height="23" x="204" y="1000.362" ry="3.712"/><rect style="opacity:1;fill:#87cdde;fill-opacity:1;stroke:#000;stroke-width:2.00000024;stroke-linecap:round;stroke-linejoin:miter;stroke-miterlimit:4;stroke-dasharray:none;stroke-dashoffset:0;stroke-opacity:0" id="rect4253" width="23" height="23" x="104" y="1000.362" ry="3.712"/><rect id="rect4255" width="23" height="23" x="229" y="1000.362" ry="3.712" style="opacity:1;fill:#ccc;fill-opacity:1;stroke:#000;stroke-width:2.00000024;stroke-linecap:round;stroke-linejoin:miter;stroke-miterlimit:4;stroke-dasharray:none;stroke-dashoffset:0;stroke-opacity:0"/><rect id="rect4257" width="23" height="23" x="4" y="975.362" ry="3.712" style="opacity:1;fill:#f2f2f2;fill-opacity:1;stroke:#000;stroke-width:2.00000024;stroke-linecap:round;stroke-linejoin:miter;stroke-miterlimit:4;stroke-dasharray:none;stroke-dashoffset:0;stroke-opacity:0"/><rect style="opacity:1;fill:#f2f2f2;fill-opacity:1;stroke:#000;stroke-width:2.00000024;stroke-linecap:round;stroke-linejoin:miter;stroke-miterlimit:4;stroke-dasharray:none;stroke-dashoffset:0;stroke-opacity:0" id="rect4259" width="23" height="23" x="29" y="975.362" ry="3.712"/><rect style="opacity:1;fill:#052;fill-opacity:1;stroke:#000;stroke-width:.31497964;stroke-linecap:round;stroke-linejoin:miter;stroke-miterlimit:4;stroke-dasharray:none;stroke-dashoffset:0;stroke-opacity:0" id="rect4261" width="3.622" height="3.622" x="63.689" y="985.051" ry=".585"/><rect id="rect4263" width="23" height="23" x="79" y="975.362" ry="3.712" style="opacity:1;fill:#052;fill-opacity:1;stroke:#000;stroke-width:2.00000024;stroke-linecap:round;stroke-linejoin:miter;stroke-miterlimit:4;stroke-dasharray:none;stroke-dashoffset:0;stroke-opacity:0"/><rect style="opacity:1;fill:#87cdde;fill-opacity:1;stroke:#000;stroke-width:2.00000024;stroke-linecap:round;stroke-linejoin:miter;stroke-miterlimit:4;stroke-dasharray:none;stroke-dashoffset:0;stroke-opacity:0" id="rect4265" width="23" height="23" x="129" y="975.362" ry="3.712"/><rect id="rect4267" width="23" height="23" x="154" y="975.362" ry="3.712" style="opacity:1;fill:#3771c8;fill-opacity:1;stroke:#000;stroke-width:2.00000024;stroke-linecap:round;stroke-linejoin:miter;stroke-miterlimit:4;stroke-dasharray:none;stroke-dashoffset:0;stroke-opacity:0"/><rect id="rect4269" width="23" height="23" x="179" y="975.362" ry="3.712" style="opacity:1;fill:#ccc;fill-opacity:1;stroke:#000;stroke-width:2.00000024;stroke-linecap:round;stroke-linejoin:miter;stroke-miterlimit:4;stroke-dasharray:none;stroke-dashoffset:0;stroke-opacity:0"/><rect style="opacity:1;fill:#ccc;fill-opacity:1;stroke:#000;stroke-width:2.00000024;stroke-linecap:round;stroke-linejoin:miter;stroke-miterlimit:4;stroke-dasharray:none;stroke-dashoffset:0;stroke-opacity:0" id="rect4271" width="23" height="23" x="204" y="975.362" ry="3.712"/><rect style="opacity:1;fill:#87cdde;fill-opacity:1;stroke:#000;stroke-width:2.00000024;stroke-linecap:round;stroke-linejoin:miter;stroke-miterlimit:4;stroke-dasharray:none;stroke-dashoffset:0;stroke-opacity:0" id="rect4273" width="23" height="23" x="104" y="975.362" ry="3.712"/><rect id="rect4275" width="23" height="23" x="229" y="975.362" ry="3.712" style="opacity:1;fill:#ccc;fill-opacity:1;stroke:#000;stroke-width:2.00000024;stroke-linecap:round;stroke-linejoin:miter;stroke-miterlimit:4;stroke-dasharray:none;stroke-dashoffset:0;stroke-opacity:0"/><rect style="opacity:1;fill:#7381b5;fill-opacity:1;stroke:#000;stroke-width:2.00000024;stroke-linecap:round;stroke-linejoin:miter;stroke-miterlimit:4;stroke-dasharray:none;stroke-dashoffset:0;stroke-opacity:0" id="rect4277" width="23" height="23" x="4" y="950.362" ry="3.712"/><rect id="rect4279" width="23" height="23" x="29" y="950.362" ry="3.712" style="opacity:1;fill:#7381b5;fill-opacity:1;stroke:#000;stroke-width:2.00000024;stroke-linecap:round;stroke-linejoin:miter;stroke-miterlimit:4;stroke-dasharray:none;stroke-dashoffset:0;stroke-opacity:0"/><rect id="rect4281" width="9.159" height="9.159" x="60.921" y="957.283" ry="1.478" style="opacity:1;fill:#052;fill-opacity:1;stroke:#000;stroke-width:.79641408;stroke-linecap:round;stroke-linejoin:miter;stroke-miterlimit:4;stroke-dasharray:none;stroke-dashoffset:0;stroke-opacity:0"/><rect style="opacity:1;fill:#052;fill-opacity:1;stroke:#000;stroke-width:2.00000024;stroke-linecap:round;stroke-linejoin:miter;stroke-miterlimit:4;stroke-dasharray:none;stroke-dashoffset:0;stroke-opacity:0" id="rect4283" width="23" height="23" x="79" y="950.362" ry="3.712"/><rect id="rect4285" width="23" height="23" x="129" y="950.362" ry="3.712" style="opacity:1;fill:#0fc;fill-opacity:1;stroke:#000;stroke-width:2.00000024;stroke-linecap:round;stroke-linejoin:miter;stroke-miterlimit:4;stroke-dasharray:none;stroke-dashoffset:0;stroke-opacity:0"/><rect style="opacity:1;fill:#0fc;fill-opacity:1;stroke:#000;stroke-width:2.00000024;stroke-linecap:round;stroke-linejoin:miter;stroke-miterlimit:4;stroke-dasharray:none;stroke-dashoffset:0;stroke-opacity:0" id="rect4287" width="23" height="23" x="154" y="950.362" ry="3.712"/><rect style="opacity:1;fill:#1a1a1a;fill-opacity:1;stroke:#000;stroke-width:2.00000024;stroke-linecap:round;stroke-linejoin:miter;stroke-miterlimit:4;stroke-dasharray:none;stroke-dashoffset:0;stroke-opacity:0" id="rect4289" width="23" height="23" x="179" y="950.362" ry="3.712"/><rect id="rect4291" width="23" height="23" x="204" y="950.362" ry="3.712" style="opacity:1;fill:#1a1a1a;fill-opacity:1;stroke:#000;stroke-width:2.00000024;stroke-linecap:round;stroke-linejoin:miter;stroke-miterlimit:4;stroke-dasharray:none;stroke-dashoffset:0;stroke-opacity:0"/><rect id="rect4293" width="23" height="23" x="104" y="950.362" ry="3.712" style="opacity:1;fill:#0fc;fill-opacity:1;stroke:#000;stroke-width:2.00000024;stroke-linecap:round;stroke-linejoin:miter;stroke-miterlimit:4;stroke-dasharray:none;stroke-dashoffset:0;stroke-opacity:0"/><rect style="opacity:1;fill:#1a1a1a;fill-opacity:1;stroke:#000;stroke-width:2.00000024;stroke-linecap:round;stroke-linejoin:miter;stroke-miterlimit:4;stroke-dasharray:none;stroke-dashoffset:0;stroke-opacity:0" id="rect4295" width="23" height="23" x="229" y="950.362" ry="3.712"/><rect id="rect4297" width="23" height="23" x="4" y="925.362" ry="3.712" style="opacity:1;fill:#f2f2f2;fill-opacity:1;stroke:#000;stroke-width:2.00000024;stroke-linecap:round;stroke-linejoin:miter;stroke-miterlimit:4;stroke-dasharray:none;stroke-dashoffset:0;stroke-opacity:0"/><rect style="opacity:1;fill:#e08d44;fill-opacity:1;stroke:#000;stroke-width:2.00000024;stroke-linecap:round;stroke-linejoin:miter;stroke-miterlimit:4;stroke-dasharray:none;stroke-dashoffset:0;stroke-opacity:0" id="rect4299" width="23" height="23" x="29" y="925.362" ry="3.712"/><rect style="opacity:1;fill:#333;fill-opacity:1;stroke:#000;stroke-width:1.59880483;stroke-linecap:round;stroke-linejoin:miter;stroke-miterlimit:4;stroke-dasharray:none;stroke-dashoffset:0;stroke-opacity:0" id="rect4301" width="18.386" height="18.386" x="56.307" y="927.669" ry="2.968"/><rect id="rect4303" width="23" height="23" x="79" y="925.362" ry="3.712" style="opacity:1;fill:#333;fill-opacity:1;stroke:#000;stroke-width:2.00000024;stroke-linecap:round;stroke-linejoin:miter;stroke-miterlimit:4;stroke-dasharray:none;stroke-dashoffset:0;stroke-opacity:0"/><rect style="opacity:1;fill:#0fc;fill-opacity:1;stroke:#000;stroke-width:2.00000024;stroke-linecap:round;stroke-linejoin:miter;stroke-miterlimit:4;stroke-dasharray:none;stroke-dashoffset:0;stroke-opacity:0" id="rect4305" width="23" height="23" x="129" y="925.362" ry="3.712"/><rect id="rect4307" width="23" height="23" x="154" y="925.362" ry="3.712" style="opacity:1;fill:#0fc;fill-opacity:1;stroke:#000;stroke-width:2.00000024;stroke-linecap:round;stroke-linejoin:miter;stroke-miterlimit:4;stroke-dasharray:none;stroke-dashoffset:0;stroke-opacity:0"/><rect id="rect4309" width="23" height="23" x="179" y="925.362" ry="3.712" style="opacity:1;fill:#1a1a1a;fill-opacity:1;stroke:#000;stroke-width:2.00000024;stroke-linecap:round;stroke-linejoin:miter;stroke-miterlimit:4;stroke-dasharray:none;stroke-dashoffset:0;stroke-opacity:0"/><rect style="opacity:1;fill:#ccc;fill-opacity:1;stroke:#000;stroke-width:2.00000024;stroke-linecap:round;stroke-linejoin:miter;stroke-miterlimit:4;stroke-dasharray:none;stroke-dashoffset:0;stroke-opacity:0" id="rect4311" width="23" height="23" x="204" y="925.362" ry="3.712"/><rect style="opacity:1;fill:#0fc;fill-opacity:1;stroke:#000;stroke-width:2.00000024;stroke-linecap:round;stroke-linejoin:miter;stroke-miterlimit:4;stroke-dasharray:none;stroke-dashoffset:0;stroke-opacity:0" id="rect4313" width="23" height="23" x="104" y="925.362" ry="3.712"/><rect id="rect4315" width="23" height="23" x="229" y="925.362" ry="3.712" style="opacity:1;fill:#1a1a1a;fill-opacity:1;stroke:#000;stroke-width:2.00000024;stroke-linecap:round;stroke-linejoin:miter;stroke-miterlimit:4;stroke-dasharray:none;stroke-dashoffset:0;stroke-opacity:0"/><rect style="opacity:1;fill:#53c17d;fill-opacity:1;stroke:#000;stroke-width:2.00000024;stroke-linecap:round;stroke-linejoin:miter;stroke-miterlimit:4;stroke-dasharray:none;stroke-dashoffset:0;stroke-opacity:0" id="rect4317" width="23" height="23" x="4" y="900.362" ry="3.712"/><rect id="rect4319" width="23" height="23" x="29" y="900.362" ry="3.712" style="opacity:1;fill:#e08d44;fill-opacity:1;stroke:#000;stroke-width:2.00000024;stroke-linecap:round;stroke-linejoin:miter;stroke-miterlimit:4;stroke-dasharray:none;stroke-dashoffset:0;stroke-opacity:0"/><rect id="rect4321" width="23" height="23" x="54" y="900.362" ry="3.712" style="opacity:1;fill:#333;fill-opacity:1;stroke:#000;stroke-width:2.00000024;stroke-linecap:round;stroke-linejoin:miter;stroke-miterlimit:4;stroke-dasharray:none;stroke-dashoffset:0;stroke-opacity:0"/><rect style="opacity:1;fill:#a80;fill-opacity:1;stroke:#000;stroke-width:2.00000024;stroke-linecap:round;stroke-linejoin:miter;stroke-miterlimit:4;stroke-dasharray:none;stroke-dashoffset:0;stroke-opacity:0" id="rect4323" width="23" height="23" x="79" y="900.362" ry="3.712"/><rect id="rect4325" width="23" height="23" x="129" y="900.362" ry="3.712" style="opacity:1;fill:#0fc;fill-opacity:1;stroke:#000;stroke-width:2.00000024;stroke-linecap:round;stroke-linejoin:miter;stroke-miterlimit:4;stroke-dasharray:none;stroke-dashoffset:0;stroke-opacity:0"/><rect style="opacity:1;fill:#0fc;fill-opacity:1;stroke:#000;stroke-width:2.00000024;stroke-linecap:round;stroke-linejoin:miter;stroke-miterlimit:4;stroke-dasharray:none;stroke-dashoffset:0;stroke-opacity:0" id="rect4327" width="23" height="23" x="154" y="900.362" ry="3.712"/><rect style="opacity:1;fill:#1a1a1a;fill-opacity:1;stroke:#000;stroke-width:2.00000024;stroke-linecap:round;stroke-linejoin:miter;stroke-miterlimit:4;stroke-dasharray:none;stroke-dashoffset:0;stroke-opacity:0" id="rect4329" width="23" height="23" x="179" y="900.362" ry="3.712"/><rect id="rect4331" width="23" height="23" x="204" y="900.362" ry="3.712" style="opacity:1;fill:#1a1a1a;fill-opacity:1;stroke:#000;stroke-width:2.00000024;stroke-linecap:round;stroke-linejoin:miter;stroke-miterlimit:4;stroke-dasharray:none;stroke-dashoffset:0;stroke-opacity:0"/><rect id="rect4333" width="23" height="23" x="104" y="900.362" ry="3.712" style="opacity:1;fill:#0fc;fill-opacity:1;stroke:#000;stroke-width:2.00000024;stroke-linecap:round;stroke-linejoin:miter;stroke-miterlimit:4;stroke-dasharray:none;stroke-dashoffset:0;stroke-opacity:0"/><rect style="opacity:1;fill:#1a1a1a;fill-opacity:1;stroke:#000;stroke-width:2.00000024;stroke-linecap:round;stroke-linejoin:miter;stroke-miterlimit:4;stroke-dasharray:none;stroke-dashoffset:0;stroke-opacity:0" id="rect4335" width="23" height="23" x="229" y="900.362" ry="3.712"/><rect style="opacity:1;fill:#53c17d;fill-opacity:1;stroke:#000;stroke-width:2.00000024;stroke-linecap:round;stroke-linejoin:miter;stroke-miterlimit:4;stroke-dasharray:none;stroke-dashoffset:0;stroke-opacity:0" id="rect4337" width="23" height="23" x="4" y="875.362" ry="3.712"/><rect id="rect4339" width="23" height="23" x="29" y="875.362" ry="3.712" style="opacity:1;fill:#53c17d;fill-opacity:1;stroke:#000;stroke-width:2.00000024;stroke-linecap:round;stroke-linejoin:miter;stroke-miterlimit:4;stroke-dasharray:none;stroke-dashoffset:0;stroke-opacity:0"/><rect id="rect4341" width="23" height="23" x="54" y="875.362" ry="3.712" style="opacity:1;fill:#333;fill-opacity:1;stroke:#000;stroke-width:2.00000024;stroke-linecap:round;stroke-linejoin:miter;stroke-miterlimit:4;stroke-dasharray:none;stroke-dashoffset:0;stroke-opacity:0"/><rect style="opacity:1;fill:#a80;fill-opacity:1;stroke:#000;stroke-width:2.00000024;stroke-linecap:round;stroke-linejoin:miter;stroke-miterlimit:4;stroke-dasharray:none;stroke-dashoffset:0;stroke-opacity:0" id="rect4343" width="23" height="23" x="79" y="875.362" ry="3.712"/><rect id="rect4345" width="23" height="23" x="129" y="875.362" ry="3.712" style="opacity:1;fill:#87cdde;fill-opacity:1;stroke:#000;stroke-width:2.00000024;stroke-linecap:round;stroke-linejoin:miter;stroke-miterlimit:4;stroke-dasharray:none;stroke-dashoffset:0;stroke-opacity:0"/><rect style="opacity:1;fill:#87cdde;fill-opacity:1;stroke:#000;stroke-width:2.00000024;stroke-linecap:round;stroke-linejoin:miter;stroke-miterlimit:4;stroke-dasharray:none;stroke-dashoffset:0;stroke-opacity:0" id="rect4347" width="23" height="23" x="154" y="875.362" ry="3.712"/><rect style="opacity:1;fill:#ccc;fill-opacity:1;stroke:#000;stroke-width:2.00000024;stroke-linecap:round;stroke-linejoin:miter;stroke-miterlimit:4;stroke-dasharray:none;stroke-dashoffset:0;stroke-opacity:0" id="rect4349" width="23" height="23" x="179" y="875.362" ry="3.712"/><rect id="rect4351" width="23" height="23" x="204" y="875.362" ry="3.712" style="opacity:1;fill:#ccc;fill-opacity:1;stroke:#000;stroke-width:2.00000024;stroke-linecap:round;stroke-linejoin:miter;stroke-miterlimit:4;stroke-dasharray:none;stroke-dashoffset:0;stroke-opacity:0"/><rect id="rect4353" width="23" height="23" x="104" y="875.362" ry="3.712" style="opacity:1;fill:#87cdde;fill-opacity:1;stroke:#000;stroke-width:2.00000024;stroke-linecap:round;stroke-linejoin:miter;stroke-miterlimit:4;stroke-dasharray:none;stroke-dashoffset:0;stroke-opacity:0"/><rect style="opacity:1;fill:#ccc;fill-opacity:1;stroke:#000;stroke-width:2.00000024;stroke-linecap:round;stroke-linejoin:miter;stroke-miterlimit:4;stroke-dasharray:none;stroke-dashoffset:0;stroke-opacity:0" id="rect4355" width="23" height="23" x="229" y="875.362" ry="3.712"/><rect id="rect4357" width="23" height="23" x="4" y="850.362" ry="3.712" style="opacity:1;fill:#55b4d6;fill-opacity:1;stroke:#000;stroke-width:2.00000024;stroke-linecap:round;stroke-linejoin:miter;stroke-miterlimit:4;stroke-dasharray:none;stroke-dashoffset:0;stroke-opacity:0"/><rect style="opacity:1;fill:#f2f2f2;fill-opacity:1;stroke:#000;stroke-width:2.00000024;stroke-linecap:round;stroke-linejoin:miter;stroke-miterlimit:4;stroke-dasharray:none;stroke-dashoffset:0;stroke-opacity:0" id="rect4359" width="23" height="23" x="29" y="850.362" ry="3.712"/><rect style="opacity:1;fill:#333;fill-opacity:1;stroke:#000;stroke-width:2.00000024;stroke-linecap:round;stroke-linejoin:miter;stroke-miterlimit:4;stroke-dasharray:none;stroke-dashoffset:0;stroke-opacity:0" id="rect4361" width="23" height="23" x="54" y="850.362" ry="3.712"/><rect id="rect4363" width="23" height="23" x="79" y="850.362" ry="3.712" style="opacity:1;fill:#a80;fill-opacity:1;stroke:#000;stroke-width:2.00000024;stroke-linecap:round;stroke-linejoin:miter;stroke-miterlimit:4;stroke-dasharray:none;stroke-dashoffset:0;stroke-opacity:0"/><rect style="opacity:1;fill:#87cdde;fill-opacity:1;stroke:#000;stroke-width:2.00000024;stroke-linecap:round;stroke-linejoin:miter;stroke-miterlimit:4;stroke-dasharray:none;stroke-dashoffset:0;stroke-opacity:0" id="rect4365" width="23" height="23" x="129" y="850.362" ry="3.712"/><rect id="rect4367" width="23" height="23" x="154" y="850.362" ry="3.712" style="opacity:1;fill:#87cdde;fill-opacity:1;stroke:#000;stroke-width:2.00000024;stroke-linecap:round;stroke-linejoin:miter;stroke-miterlimit:4;stroke-dasharray:none;stroke-dashoffset:0;stroke-opacity:0"/><rect id="rect4369" width="23" height="23" x="179" y="850.362" ry="3.712" style="opacity:1;fill:#1a1a1a;fill-opacity:1;stroke:#000;stroke-width:2.00000024;stroke-linecap:round;stroke-linejoin:miter;stroke-miterlimit:4;stroke-dasharray:none;stroke-dashoffset:0;stroke-opacity:0"/><rect style="opacity:1;fill:#1a1a1a;fill-opacity:1;stroke:#000;stroke-width:2.00000024;stroke-linecap:round;stroke-linejoin:miter;stroke-miterlimit:4;stroke-dasharray:none;stroke-dashoffset:0;stroke-opacity:0" id="rect4371" width="23" height="23" x="204" y="850.362" ry="3.712"/><rect style="opacity:1;fill:#87cdde;fill-opacity:1;stroke:#000;stroke-width:2.00000024;stroke-linecap:round;stroke-linejoin:miter;stroke-miterlimit:4;stroke-dasharray:none;stroke-dashoffset:0;stroke-opacity:0" id="rect4373" width="23" height="23" x="104" y="850.362" ry="3.712"/><rect id="rect4375" width="23" height="23" x="229" y="850.362" ry="3.712" style="opacity:1;fill:#1a1a1a;fill-opacity:1;stroke:#000;stroke-width:2.00000024;stroke-linecap:round;stroke-linejoin:miter;stroke-miterlimit:4;stroke-dasharray:none;stroke-dashoffset:0;stroke-opacity:0"/><rect id="rect4377" width="23" height="23" x="4" y="825.362" ry="3.712" style="opacity:1;fill:#55b4d6;fill-opacity:1;stroke:#000;stroke-width:2.00000024;stroke-linecap:round;stroke-linejoin:miter;stroke-miterlimit:4;stroke-dasharray:none;stroke-dashoffset:0;stroke-opacity:0"/><rect style="opacity:1;fill:#f2f2f2;fill-opacity:1;stroke:#000;stroke-width:2.00000024;stroke-linecap:round;stroke-linejoin:miter;stroke-miterlimit:4;stroke-dasharray:none;stroke-dashoffset:0;stroke-opacity:0" id="rect4379" width="23" height="23" x="29" y="825.362" ry="3.712"/><rect style="opacity:1;fill:#333;fill-opacity:1;stroke:#000;stroke-width:1.48936188;stroke-linecap:round;stroke-linejoin:miter;stroke-miterlimit:4;stroke-dasharray:none;stroke-dashoffset:0;stroke-opacity:0" id="rect4381" width="17.128" height="17.128" x="56.936" y="828.298" ry="2.764"/><rect id="rect4383" width="23" height="23" x="79" y="825.362" ry="3.712" style="opacity:1;fill:#a80;fill-opacity:1;stroke:#000;stroke-width:2.00000024;stroke-linecap:round;stroke-linejoin:miter;stroke-miterlimit:4;stroke-dasharray:none;stroke-dashoffset:0;stroke-opacity:0"/><rect style="opacity:1;fill:#0055d4;fill-opacity:1;stroke:#000;stroke-width:2.00000024;stroke-linecap:round;stroke-linejoin:miter;stroke-miterlimit:4;stroke-dasharray:none;stroke-dashoffset:0;stroke-opacity:0" id="rect4385" width="23" height="23" x="129" y="825.362" ry="3.712"/><rect id="rect4387" width="23" height="23" x="154" y="825.362" ry="3.712" style="opacity:1;fill:#0055d4;fill-opacity:1;stroke:#000;stroke-width:2.00000024;stroke-linecap:round;stroke-linejoin:miter;stroke-miterlimit:4;stroke-dasharray:none;stroke-dashoffset:0;stroke-opacity:0"/><rect id="rect4389" width="23" height="23" x="179" y="825.362" ry="3.712" style="opacity:1;fill:#1a1a1a;fill-opacity:1;stroke:#000;stroke-width:2.00000024;stroke-linecap:round;stroke-linejoin:miter;stroke-miterlimit:4;stroke-dasharray:none;stroke-dashoffset:0;stroke-opacity:0"/><rect style="opacity:1;fill:#ccc;fill-opacity:1;stroke:#000;stroke-width:2.00000024;stroke-linecap:round;stroke-linejoin:miter;stroke-miterlimit:4;stroke-dasharray:none;stroke-dashoffset:0;stroke-opacity:0" id="rect4391" width="23" height="23" x="204" y="825.362" ry="3.712"/><rect style="opacity:1;fill:#87cdde;fill-opacity:1;stroke:#000;stroke-width:2.00000024;stroke-linecap:round;stroke-linejoin:miter;stroke-miterlimit:4;stroke-dasharray:none;stroke-dashoffset:0;stroke-opacity:0" id="rect4393" width="23" height="23" x="104" y="825.362" ry="3.712"/><rect id="rect4395" width="23" height="23" x="229" y="825.362" ry="3.712" style="opacity:1;fill:#ccc;fill-opacity:1;stroke:#000;stroke-width:2.00000024;stroke-linecap:round;stroke-linejoin:miter;stroke-miterlimit:4;stroke-dasharray:none;stroke-dashoffset:0;stroke-opacity:0"/><rect style="opacity:1;fill:#55b4d6;fill-opacity:1;stroke:#000;stroke-width:2.00000024;stroke-linecap:round;stroke-linejoin:miter;stroke-miterlimit:4;stroke-dasharray:none;stroke-dashoffset:0;stroke-opacity:0" id="rect4397" width="23" height="23" x="4" y="800.362" ry="3.712"/><rect id="rect4399" width="23" height="23" x="29" y="800.362" ry="3.712" style="opacity:1;fill:#f2f2f2;fill-opacity:1;stroke:#000;stroke-width:2.00000024;stroke-linecap:round;stroke-linejoin:miter;stroke-miterlimit:4;stroke-dasharray:none;stroke-dashoffset:0;stroke-opacity:0"/><rect id="rect4401" width="13.213" height="13.213" x="58.894" y="805.256" ry="2.133" style="opacity:1;fill:#333;fill-opacity:1;stroke:#000;stroke-width:1.14893627;stroke-linecap:round;stroke-linejoin:miter;stroke-miterlimit:4;stroke-dasharray:none;stroke-dashoffset:0;stroke-opacity:0"/><rect style="opacity:1;fill:#a80;fill-opacity:1;stroke:#000;stroke-width:2.00000024;stroke-linecap:round;stroke-linejoin:miter;stroke-miterlimit:4;stroke-dasharray:none;stroke-dashoffset:0;stroke-opacity:0" id="rect4403" width="23" height="23" x="79" y="800.362" ry="3.712"/><rect id="rect4405" width="23" height="23" x="129" y="800.362" ry="3.712" style="opacity:1;fill:#0055d4;fill-opacity:1;stroke:#000;stroke-width:2.00000024;stroke-linecap:round;stroke-linejoin:miter;stroke-miterlimit:4;stroke-dasharray:none;stroke-dashoffset:0;stroke-opacity:0"/><rect style="opacity:1;fill:#37abc8;fill-opacity:1;stroke:#000;stroke-width:2.00000024;stroke-linecap:round;stroke-linejoin:miter;stroke-miterlimit:4;stroke-dasharray:none;stroke-dashoffset:0;stroke-opacity:0" id="rect4407" width="23" height="23" x="154" y="800.362" ry="3.712"/><rect style="opacity:1;fill:#ccc;fill-opacity:1;stroke:#000;stroke-width:2.00000024;stroke-linecap:round;stroke-linejoin:miter;stroke-miterlimit:4;stroke-dasharray:none;stroke-dashoffset:0;stroke-opacity:0" id="rect4409" width="23" height="23" x="179" y="800.362" ry="3.712"/><rect id="rect4411" width="23" height="23" x="204" y="800.362" ry="3.712" style="opacity:1;fill:#ccc;fill-opacity:1;stroke:#000;stroke-width:2.00000024;stroke-linecap:round;stroke-linejoin:miter;stroke-miterlimit:4;stroke-dasharray:none;stroke-dashoffset:0;stroke-opacity:0"/><rect id="rect4413" width="23" height="23" x="104" y="800.362" ry="3.712" style="opacity:1;fill:#87cdde;fill-opacity:1;stroke:#000;stroke-width:2.00000024;stroke-linecap:round;stroke-linejoin:miter;stroke-miterlimit:4;stroke-dasharray:none;stroke-dashoffset:0;stroke-opacity:0"/><rect style="opacity:1;fill:#ccc;fill-opacity:1;stroke:#000;stroke-width:2.00000024;stroke-linecap:round;stroke-linejoin:miter;stroke-miterlimit:4;stroke-dasharray:none;stroke-dashoffset:0;stroke-opacity:0" id="rect4415" width="23" height="23" x="229" y="800.362" ry="3.712"/><g id="g4240" transform="matrix(0.83591472,-0.48597892,0.48597892,0.83591472,-688.29402,299.05674)"><path id="path4234" d="m 397.2578,948.4531 c -2.83872,1.31018 -21.24534,-19.0488 -24.31201,-19.6574 -3.06668,-0.6086 -27.85289,11.17849 -29.97615,8.88357 -2.12327,-2.29491 11.55131,-26.09192 11.18247,-29.19656 -0.36884,-3.10465 -19.23838,-23.03533 -17.71192,-25.76384 1.52647,-2.72851 28.38445,2.92311 31.22316,1.61293 2.83872,-1.31018 15.96291,-25.4151 19.02958,-24.8065 3.06668,0.6086 5.99124,27.8985 8.1145,30.19341 2.12327,2.29492 29.10401,7.32793 29.47285,10.43258 0.36884,3.10465 -24.68166,14.31911 -26.20812,17.04762 -1.52647,2.72851 2.02435,29.94401 -0.81436,31.25419 z" style="opacity:1;fill:#ff2a2a;fill-opacity:1;stroke:none;stroke-width:2;stroke-linecap:round;stroke-linejoin:miter;stroke-miterlimit:4;stroke-dasharray:none;stroke-dashoffset:0;stroke-opacity:0"/><path style="opacity:1;fill:#ff7f2a;fill-opacity:1;stroke:none;stroke-width:2;stroke-linecap:round;stroke-linejoin:miter;stroke-miterlimit:4;stroke-dasharray:none;stroke-dashoffset:0;stroke-opacity:0" id="path4236" d="m 394.32624,944.56071 c -2.28526,1.05473 -16.36425,-16.42565 -18.87071,-16.65485 -2.50646,-0.22921 -19.5224,14.40771 -21.57846,12.95599 -2.05605,-1.45173 6.04291,-22.38468 4.98818,-24.66994 -1.05474,-2.28526 -22.23865,-9.70304 -22.00945,-12.2095 0.2292,-2.50646 22.40715,-5.95902 23.85888,-8.01508 1.45172,-2.05606 -2.71625,-24.11075 -0.43099,-25.16549 2.28526,-1.05473 16.36424,16.42565 18.8707,16.65485 2.50646,0.22921 19.5224,-14.40771 21.57846,-12.95599 2.05606,1.45173 -6.04291,22.38468 -4.98817,24.66994 1.05473,2.28526 22.23865,9.70303 22.00945,12.20949 -0.22921,2.50646 -22.40716,5.95903 -23.85888,8.01509 -1.45173,2.05606 2.71625,24.11075 0.43099,25.16549 z" transform="matrix(0.4060959,-0.86054354,0.86054354,0.4060959,-554.98762,861.9104)"/><path id="path4238" d="m 394.32624,944.56071 c -2.1788,1.00559 -14.95481,-16.53387 -17.35415,-16.5732 -2.39934,-0.0393 -15.74337,17.07195 -17.88804,15.99548 -2.14466,-1.07647 3.60252,-22.00083 2.13731,-23.90124 -1.46521,-1.9004 -23.16322,-1.66447 -23.65878,-4.01241 -0.49555,-2.34793 19.44709,-10.90073 20.01934,-13.23116 0.57224,-2.33043 -13.1407,-19.14752 -11.61398,-20.99887 1.52671,-1.85136 20.64759,8.40785 22.82639,7.40225 2.17879,-1.0056 6.77704,-22.21209 9.17638,-22.17276 2.39934,0.0393 6.30004,21.38515 8.44471,22.46162 2.14466,1.07647 21.59153,-8.55051 23.05674,-6.65011 1.46521,1.9004 -12.79157,18.259 -12.29601,20.60693 0.49556,2.34793 20.14715,11.54979 19.5749,13.88022 -0.57224,2.33043 -22.25086,1.38344 -23.77758,3.2348 -1.52671,1.85135 3.53156,22.95285 1.35277,23.95845 z" transform="matrix(-0.07318693,-0.59956127,0.59956127,-0.07318693,-137.92789,1196.4736)" style="opacity:1;fill:#ffd42a;fill-opacity:1;stroke:none;stroke-width:2;stroke-linecap:round;stroke-linejoin:miter;stroke-miterlimit:4;stroke-dasharray:none;stroke-dashoffset:0;stroke-opacity:0"/></g><g id="g4344" transform="matrix(0.94054186,-0.3396778,0.3396778,0.94054186,-541.22159,-72.93379)"><g id="text4245" style="font-style:normal;font-weight:400;font-size:40px;line-height:125%;font-family:sans-serif;letter-spacing:0;word-spacing:0;fill:#000;fill-opacity:.25568183;stroke:none;stroke-width:1px;stroke-linecap:butt;stroke-linejoin:miter;stroke-opacity:1;filter:url(#filter4340)"><path id="path4254" d="m 232.27348,1164.9911 10,0 0,6.52 -16.56,0 0,-29.44 6.56,0 0,22.92 0,0 z" style="font-style:normal;font-variant:normal;font-weight:400;font-stretch:normal;font-family:'The Next Font';-inkscape-font-specification:'The Next Font';fill:#000;fill-opacity:.25568183"/><path id="path4256" d="m 264.5191,1148.6311 -12.48,0 0,4.92 12.48,0 0,6.52 -12.48,0 0,4.92 12.48,0 0,6.52 -14.96,0 0,0 -4.08,0 0,-29.44 6.56,0 0,0.04 12.48,0 0,6.52 0,0 z" style="font-style:normal;font-variant:normal;font-weight:400;font-stretch:normal;font-family:'The Next Font';-inkscape-font-specification:'The Next Font';fill:#000;fill-opacity:.25568183"/><path id="path4258" d="m 284.66473,1142.1111 6.72,0 -6.96,29.4 -9.76,0 -6.92,-29.4 6.72,0 5.08,21.6 5.12,-21.6 0,0 z" style="font-style:normal;font-variant:normal;font-weight:400;font-stretch:normal;font-family:'The Next Font';-inkscape-font-specification:'The Next Font';fill:#000;fill-opacity:.25568183"/><path id="path4260" d="m 313.65973,1148.6311 -12.48,0 0,4.92 12.48,0 0,6.52 -12.48,0 0,4.92 12.48,0 0,6.52 -14.96,0 0,0 -4.08,0 0,-29.44 6.56,0 0,0.04 12.48,0 0,6.52 0,0 z" style="font-style:normal;font-variant:normal;font-weight:400;font-stretch:normal;font-family:'The Next Font';-inkscape-font-specification:'The Next Font';fill:#000;fill-opacity:.25568183"/><path id="path4262" d="m 323.44535,1164.9911 10,0 0,6.52 -16.56,0 0,-29.44 6.56,0 0,22.92 0,0 z" style="font-style:normal;font-variant:normal;font-weight:400;font-stretch:normal;font-family:'The Next Font';-inkscape-font-specification:'The Next Font';fill:#000;fill-opacity:.25568183"/><path id="path4264" d="m 355.0766,1171.5111 q -2.32,0 -4.36,-0.88 -2,-0.88 -3.52,-2.4 -1.52,-1.52 -2.4,-3.52 -0.88,-2.04 -0.88,-4.36 l 0,-18.24 6.56,0 0,18.24 q 0,0.96 0.36,1.8 0.36,0.84 1,1.48 0.64,0.64 1.44,1 0.84,0.36 1.8,0.36 0.96,0 1.8,-0.36 0.84,-0.36 1.48,-1 0.64,-0.64 1,-1.48 0.36,-0.84 0.36,-1.8 l 0,-18.24 6.52,0 0,18.24 q 0,2.32 -0.88,4.36 -0.88,2 -2.4,3.52 -1.52,1.52 -3.56,2.4 -2,0.88 -4.32,0.88 z" style="font-style:normal;font-variant:normal;font-weight:400;font-stretch:normal;font-family:'The Next Font';-inkscape-font-specification:'The Next Font';fill:#000;fill-opacity:.25568183"/><path id="path4266" d="m 379.26348,1142.1111 q 2.24,0 4.2,0.84 1.96,0.84 3.44,2.32 1.48,1.48 2.32,3.44 0.84,1.96 0.84,4.16 0,2.24 -0.84,4.2 -0.84,1.96 -2.32,3.44 -1.48,1.48 -3.44,2.32 -1.96,0.84 -4.2,0.84 l -3.24,0 0,7.84 -6.56,0 0,-29.4 9.8,0 z m 0,15.04 q 0.88,0 1.64,-0.32 0.8,-0.36 1.36,-0.92 0.6,-0.6 0.92,-1.36 0.36,-0.8 0.36,-1.68 0,-0.88 -0.36,-1.64 -0.32,-0.76 -0.92,-1.32 -0.56,-0.6 -1.36,-0.92 -0.76,-0.36 -1.64,-0.36 l -3.24,0 0,8.52 3.24,0 z" style="font-style:normal;font-variant:normal;font-weight:400;font-stretch:normal;font-family:'The Next Font';-inkscape-font-specification:'The Next Font';fill:#000;fill-opacity:.25568183"/></g><g style="font-style:normal;font-weight:400;font-size:40px;line-height:125%;font-family:sans-serif;letter-spacing:0;word-spacing:0;fill:#fff;fill-opacity:1;stroke:none;stroke-width:1px;stroke-linecap:butt;stroke-linejoin:miter;stroke-opacity:1" id="g4268" transform="matrix(0.9318622,0,0,0.9318622,20.978842,78.821195)"><path style="font-style:normal;font-variant:normal;font-weight:400;font-stretch:normal;font-family:'The Next Font';-inkscape-font-specification:'The Next Font';fill:#fff" id="path4270" d="m 232.27348,1164.9911 10,0 0,6.52 -16.56,0 0,-29.44 6.56,0 0,22.92 0,0 z"/><path style="font-style:normal;font-variant:normal;font-weight:400;font-stretch:normal;font-family:'The Next Font';-inkscape-font-specification:'The Next Font';fill:#fff" id="path4272" d="m 264.5191,1148.6311 -12.48,0 0,4.92 12.48,0 0,6.52 -12.48,0 0,4.92 12.48,0 0,6.52 -14.96,0 0,0 -4.08,0 0,-29.44 6.56,0 0,0.04 12.48,0 0,6.52 0,0 z"/><path style="font-style:normal;font-variant:normal;font-weight:400;font-stretch:normal;font-family:'The Next Font';-inkscape-font-specification:'The Next Font';fill:#fff" id="path4274" d="m 284.66473,1142.1111 6.72,0 -6.96,29.4 -9.76,0 -6.92,-29.4 6.72,0 5.08,21.6 5.12,-21.6 0,0 z"/><path style="font-style:normal;font-variant:normal;font-weight:400;font-stretch:normal;font-family:'The Next Font';-inkscape-font-specification:'The Next Font';fill:#fff" id="path4276" d="m 313.65973,1148.6311 -12.48,0 0,4.92 12.48,0 0,6.52 -12.48,0 0,4.92 12.48,0 0,6.52 -14.96,0 0,0 -4.08,0 0,-29.44 6.56,0 0,0.04 12.48,0 0,6.52 0,0 z"/><path style="font-style:normal;font-variant:normal;font-weight:400;font-stretch:normal;font-family:'The Next Font';-inkscape-font-specification:'The Next Font';fill:#fff" id="path4278" d="m 323.44535,1164.9911 10,0 0,6.52 -16.56,0 0,-29.44 6.56,0 0,22.92 0,0 z"/><path style="font-style:normal;font-variant:normal;font-weight:400;font-stretch:normal;font-family:'The Next Font';-inkscape-font-specification:'The Next Font';fill:#ff0;fill-opacity:1" id="path4280" d="m 355.0766,1171.5111 q -2.32,0 -4.36,-0.88 -2,-0.88 -3.52,-2.4 -1.52,-1.52 -2.4,-3.52 -0.88,-2.04 -0.88,-4.36 l 0,-18.24 6.56,0 0,18.24 q 0,0.96 0.36,1.8 0.36,0.84 1,1.48 0.64,0.64 1.44,1 0.84,0.36 1.8,0.36 0.96,0 1.8,-0.36 0.84,-0.36 1.48,-1 0.64,-0.64 1,-1.48 0.36,-0.84 0.36,-1.8 l 0,-18.24 6.52,0 0,18.24 q 0,2.32 -0.88,4.36 -0.88,2 -2.4,3.52 -1.52,1.52 -3.56,2.4 -2,0.88 -4.32,0.88 z"/><path style="font-style:normal;font-variant:normal;font-weight:400;font-stretch:normal;font-family:'The Next Font';-inkscape-font-specification:'The Next Font';fill:#ff0;fill-opacity:1" id="path4282" d="m 379.26348,1142.1111 q 2.24,0 4.2,0.84 1.96,0.84 3.44,2.32 1.48,1.48 2.32,3.44 0.84,1.96 0.84,4.16 0,2.24 -0.84,4.2 -0.84,1.96 -2.32,3.44 -1.48,1.48 -3.44,2.32 -1.96,0.84 -4.2,0.84 l -3.24,0 0,7.84 -6.56,0 0,-29.4 9.8,0 z m 0,15.04 q 0.88,0 1.64,-0.32 0.8,-0.36 1.36,-0.92 0.6,-0.6 0.92,-1.36 0.36,-0.8 0.36,-1.68 0,-0.88 -0.36,-1.64 -0.32,-0.76 -0.92,-1.32 -0.56,-0.6 -1.36,-0.92 -0.76,-0.36 -1.64,-0.36 l -3.24,0 0,8.52 3.24,0 z"/></g></g></g></svg>