<svg xmlns="http://www.w3.org/2000/svg" xmlns:svg="http://www.w3.org/2000/svg" xmlns:xlink="http://www.w3.org/1999/xlink" id="svg2" width="256" height="256" version="1.1" viewBox="0 0 256 256"><defs id="defs4"><linearGradient id="linearGradient4319" x1="-441.977" x2="-441.977" y1="1012.843" y2="1072.363" gradientTransform="translate(1.8037136,-10.091205)" gradientUnits="userSpaceOnUse" xlink:href="#linearGradient4313"/><linearGradient id="linearGradient4313"><stop style="stop-color:#005497;stop-opacity:.27272728" id="stop4315" offset="0"/><stop style="stop-color:#005497;stop-opacity:.06818182" id="stop4317" offset="1"/></linearGradient><filter style="color-interpolation-filters:sRGB" id="filter4309" width="1.08" height="1.191" x="-.04" y="-.095"><feGaussianBlur id="feGaussianBlur4311" stdDeviation="3.667"/></filter></defs><metadata id="metadata7"/><g id="layer1" transform="translate(0,-796.36216)"><g id="g4261" transform="matrix(0.71111111,0,0,0.71111111,476.26667,151.60534)"><rect id="rect4228" width="360" height="360" x="-669.75" y="906.689" ry="0" style="opacity:1;fill:#fff;fill-opacity:1;stroke:none;stroke-width:.1;stroke-linecap:round;stroke-linejoin:miter;stroke-miterlimit:4;stroke-dasharray:none;stroke-dashoffset:0;stroke-opacity:1"/><g id="g4240" transform="matrix(1.3547235,0,0,1.3547235,160.26025,20.43346)"><path style="opacity:1;fill:url(#linearGradient4319);fill-opacity:1;stroke:none;stroke-width:.1;stroke-linecap:round;stroke-linejoin:miter;stroke-miterlimit:4;stroke-dasharray:none;stroke-dashoffset:0;stroke-opacity:1;filter:url(#filter4309)" id="path4238" d="m -442.65137,1055.1932 c -5.37558,-4e-4 -10.75247,-0.4342 -14.87109,-1.3009 l -84.63672,-17.8104 c -1.65176,-0.3475 -2.95609,-0.7386 -3.94531,-1.154 -3.71453,-1.1985 -6.62987,-3.2201 -7.13477,-4.9803 -0.41372,-0.4331 -0.64391,-0.9429 -0.63281,-1.5313 l 0.69922,-37.06 c 0.054,-2.86135 5.52976,-6.35712 12.27734,-7.8371 l 89.12695,-19.54942 c 1.48558,-0.32573 2.89873,-0.51836 4.20899,-0.60182 3.99244,-0.574 8.30073,-0.65058 11.66992,0.11216 l 88.56445,20.04642 c 6.90343,1.56259 12.50464,5.19835 12.5586,8.15116 l 0.69922,38.2432 c 0.0315,1.7289 -1.90581,3.6797 -5.14063,5.0001 -0.19992,0.086 -0.41416,0.1725 -0.64258,0.2558 -0.016,0 -0.0327,0.022 -0.0488,0.022 -0.90767,0.3313 -2.01326,0.6462 -3.36329,0.9301 l -84.51953,17.7707 c -4.11948,0.8661 -9.49355,1.2992 -14.86914,1.2988 z" transform="matrix(0.84718319,0,0,1.0213689,-103.68658,-169.01715)"/><path style="opacity:1;fill:#00aad4;fill-opacity:1;stroke:none;stroke-width:.1;stroke-linecap:round;stroke-linejoin:miter;stroke-miterlimit:4;stroke-dasharray:none;stroke-dashoffset:0;stroke-opacity:1" id="rect4234" d="m -397.75084,715.67331 -163.78868,1.15534 c -6.94231,0.049 -14.10792,13.10451 -10.71655,19.16231 l 80.79533,144.31978 c 3.39136,6.05781 12.65442,10.6298 18.54535,6.9562 l 75.57536,-47.12863 c 5.89092,-3.67357 10.6705,-12.21995 10.71655,-19.16229 l 0.59631,-89.90907 c 0.046,-6.94233 -4.78135,-15.44261 -11.72367,-15.39364 z"/><rect style="opacity:1;fill:#0cf;fill-opacity:1;stroke:none;stroke-width:.1;stroke-linecap:round;stroke-linejoin:miter;stroke-miterlimit:4;stroke-dasharray:none;stroke-dashoffset:0;stroke-opacity:1" id="rect4232" width="113.151" height="111.416" x="-678.873" y="1073.597" ry="12.144" transform="matrix(0.85586624,0.51719723,0.00684405,0.99997658,0,0)"/><rect style="opacity:1;fill:#5df;fill-opacity:1;stroke:none;stroke-width:.1;stroke-linecap:round;stroke-linejoin:miter;stroke-miterlimit:4;stroke-dasharray:none;stroke-dashoffset:0;stroke-opacity:1" id="rect4230" width="112.682" height="112.816" x="388.7" y="942.098" ry="14.666" transform="matrix(0.86530322,0.50124878,-0.86512318,0.50155946,0,0)"/></g></g></g></svg>